 <svg width="116" height="36" viewBox="0 0 116 36" fill="none" xmlns="http://www.w3.org/2000/svg">
        <path
          fillRule="evenodd"
          clipRule="evenodd"
          d="M14.4738 5.67631C13.7396 5.67631 12.9006 5.67631 12.1664 5.67631C11.2224 5.67631 10.1736 5.67629 9.22967 5.78117C8.91502 5.78117 8.70526 5.6763 8.4955 5.46654C8.28573 5.25677 8.18085 4.94211 8.18085 4.73235C8.28573 3.57864 8.39062 2.42494 8.4955 1.16635C8.4955 0.641936 8.91503 0.327295 9.43944 0.222412C11.2224 0.222412 13.1103 0.222412 14.8933 0.222412C15.4177 0.222412 15.8373 0.641936 15.8373 1.16635C15.9422 2.21517 16.047 3.26399 16.1519 4.20793C16.2568 5.15188 16.991 5.88607 17.9349 5.99095C19.4033 6.09583 21.0814 6.3056 22.8644 6.62025C23.2839 6.72513 23.5986 7.03977 23.7035 7.4593C24.0181 9.2423 24.2279 11.1302 24.4376 12.9132C24.4376 13.2278 24.3328 13.5425 24.123 13.7522C23.9132 13.962 23.5986 14.0669 23.2839 14.0669C21.396 13.8571 19.4033 13.7522 17.6203 13.7522C17.0959 13.7522 16.6763 13.3327 16.6763 12.8083C16.5715 11.1302 16.5714 9.45208 16.4666 7.77396C16.3617 6.51537 15.5226 5.67631 14.4738 5.67631Z"
          fill="#C6FF35"
        />
        <path
          fillRule="evenodd"
          clipRule="evenodd"
          d="M7.86616 11.8645C7.97104 10.1863 7.97104 8.61308 8.07592 6.83007C8.07592 6.51543 7.97105 6.30568 7.76128 6.09592C7.55152 5.88615 7.23686 5.78125 7.0271 5.78125C5.34898 5.88613 3.56598 6.0959 1.6781 6.41055C1.25857 6.51543 0.943915 6.8301 0.839032 7.24963C0.524385 9.03263 0.314623 10.9205 0.104858 12.7035C0.104858 13.0181 0.209744 13.3328 0.419509 13.5426C0.629274 13.7523 0.943916 13.8572 1.25856 13.8572C2.93668 13.7523 4.61481 13.6475 6.29292 13.5426C6.71245 13.5426 7.13198 13.6475 7.44663 13.9621C7.76128 14.2767 7.86616 14.5914 7.86616 15.0109C7.86616 17.0037 7.86616 18.9964 7.86616 20.9892C7.86616 21.8283 8.49546 22.4576 9.33452 22.4576C10.3833 22.4576 11.3273 22.4576 12.3761 22.4576C13.32 22.4576 14.264 22.4576 15.3128 22.4576C15.7323 22.4576 16.1519 22.5625 16.3616 22.8771C16.6763 23.1918 16.7812 23.5064 16.7812 23.9259C16.6763 25.6041 16.6763 27.1773 16.5714 28.9603C16.5714 29.2749 16.6763 29.4847 16.8861 29.6945C17.0958 29.9042 17.4105 30.0091 17.6202 30.0091C19.2983 29.9042 21.0814 29.6945 22.9692 29.3798C23.3888 29.2749 23.7034 28.9603 23.8083 28.5408C24.1229 26.7578 24.3327 24.8699 24.5425 23.0869C24.5425 22.7722 24.4376 22.4576 24.2278 22.2478C24.0181 22.038 23.7034 21.9332 23.3888 21.9332C21.7106 22.0381 20.0325 22.1429 18.3544 22.2478C17.9349 22.2478 17.5153 22.1429 17.2007 21.8283C16.8861 21.5136 16.7812 21.199 16.7812 20.7795C16.7812 18.7867 16.7812 16.7939 16.7812 14.8011C16.7812 13.9621 16.1519 13.3328 15.3128 13.3328C14.264 13.3328 13.32 13.3328 12.2712 13.3328C11.3273 13.3328 10.3833 13.3328 9.33452 13.3328C8.91499 13.3328 8.49546 13.2279 8.28569 12.9133C7.97105 12.7035 7.76128 12.284 7.86616 11.8645Z"
          fill="#C6FF35"
        />
        <path
          fillRule="evenodd"
          clipRule="evenodd"
          d="M9.96383 30.2188C10.698 30.2188 11.5371 30.3237 12.2712 30.3237C13.2152 30.3237 14.264 30.3237 15.208 30.2188C15.5226 30.2188 15.7324 30.3237 15.9421 30.5334C16.1519 30.7432 16.2568 31.0579 16.2568 31.2676C16.1519 32.4213 16.047 33.575 15.9421 34.8336C15.9421 35.358 15.5226 35.6727 14.9982 35.7776C13.2152 35.7776 11.4322 35.7776 9.5443 35.7776C9.01989 35.7776 8.60036 35.358 8.60036 34.8336C8.49548 33.7848 8.3906 32.736 8.28572 31.7921C8.18083 30.8481 7.44665 30.1139 6.50271 30.009C5.03436 29.9042 3.35624 29.6944 1.57324 29.3797C1.15371 29.2749 0.839057 28.9602 0.734174 28.5407C0.419527 26.7577 0.209765 24.8698 0 23.0868C0 22.7721 0.104878 22.4575 0.314643 22.2477C0.524408 22.038 0.839058 21.9331 1.15371 21.9331C3.04159 22.1429 5.03436 22.2477 6.81736 22.2477C7.34177 22.2477 7.7613 22.6673 7.7613 23.1917C7.7613 24.8698 7.86618 26.5479 7.97107 28.2261C8.07595 29.3798 8.91501 30.2188 9.96383 30.2188Z"
          fill="#C6FF35"
        />
        <path
          fillRule="evenodd"
          clipRule="evenodd"
          d="M47.7215 22.1429C47.7215 21.1989 47.0922 20.4648 46.2532 20.255L40.4847 18.7866C38.1772 18.1574 36.604 16.2695 36.604 13.7523C36.604 12.4937 37.0235 11.1302 37.9675 10.1863C39.0163 9.03257 40.3798 8.61304 41.8481 8.61304H50.1338V11.8644H42.0579C41.0091 11.8644 40.17 12.5986 40.17 13.6474C40.17 14.5913 40.6944 15.2206 41.5335 15.4304L47.1971 16.8987C49.6094 17.528 51.1827 19.5208 51.1827 22.038C51.1827 23.4015 50.7631 24.7649 49.8192 25.7089C48.7704 26.8626 47.4069 27.387 45.8337 27.387H37.2333V24.0308H45.7288C46.8825 24.0308 47.7215 23.1917 47.7215 22.1429Z"
          fill="#C6FF35"
        />
        <path
          fillRule="evenodd"
          clipRule="evenodd"
          d="M100.582 11.8643V8.50806H86.6329V11.8643H91.7722V27.3869H95.4431V11.8643H100.582Z"
          fill="#C6FF35"
        />
        <path
          fillRule="evenodd"
          clipRule="evenodd"
          d="M116 27.3869V24.1355H106.875V19.5207H114.741V16.2694H106.875V11.8643H116V8.50806H103.204V27.3869H116Z"
          fill="#C6FF35"
        />
        <path
          fillRule="evenodd"
          clipRule="evenodd"
          d="M54.1194 8.50806H57.7903V16.3742H61.0416L64.7125 8.50806H68.5932L64.9223 16.3742H65.3418C66.1809 16.3742 66.915 16.6889 67.4395 17.2133C67.9639 17.7377 68.2785 18.4719 68.2785 19.311V27.282H64.6076V19.4158H57.7903V27.282H54.1194V8.50806Z"
          fill="#C6FF35"
        />
        <path
          fillRule="evenodd"
          clipRule="evenodd"
          d="M78.8716 14.0668C77.2984 18.4719 75.83 22.9818 74.3617 27.3869H70.481L77.2984 8.50806H80.2351L87.1573 27.3869H83.2767C81.8083 22.9818 80.4449 18.4719 78.8716 14.0668Z"
          fill="#C6FF35"
        />
      </svg>