<svg width="77" height="112" viewBox="0 0 77 112" fill="none" xmlns="http://www.w3.org/2000/svg">
<path fill-rule="evenodd" clip-rule="evenodd" d="M45.4882 17.868C43.1574 17.868 40.8268 17.868 38.496 17.868C35.5826 17.868 32.3779 17.868 29.4645 17.868C28.5905 17.868 27.7164 17.868 27.1338 16.994C26.5511 16.12 26.2598 15.5368 26.2598 14.6628C26.2598 10.8753 26.8424 7.37909 27.1338 3.59166C27.1338 2.13495 28.5904 0.678955 30.0471 0.678955C35.5826 0.678955 41.4095 0.678955 46.945 0.678955C48.4017 0.678955 49.8583 1.84361 49.8583 3.59166C50.1497 6.79641 50.441 10.0017 50.7323 13.2064C50.7323 16.1198 53.3545 18.4506 56.2679 18.742C60.9293 19.3246 65.882 19.9073 71.4175 20.4899C72.8742 20.4899 73.7483 21.6552 74.0397 23.1119C74.9137 28.6474 75.7878 34.4738 76.3705 40.0093C76.3705 40.8833 76.3705 41.7581 75.4965 42.6321C74.9138 43.2148 74.0397 43.5061 73.1657 43.5061C67.0475 42.9235 61.2207 42.6321 55.3939 42.6321C53.6458 42.6321 52.4805 41.1753 52.4805 39.7186C52.4805 34.4744 52.1892 29.5217 51.6065 24.2775C51.6065 21.0728 48.9843 18.7417 45.7796 18.4503L45.4882 17.868Z" fill="#C6FF35"/>
<path fill-rule="evenodd" clip-rule="evenodd" d="M24.515 37.3876C24.515 32.4348 25.0976 27.1907 25.389 21.9465C25.389 21.0725 25.389 20.1989 24.515 19.6162C23.9323 19.0335 23.0582 18.7422 22.1842 18.7422C16.94 19.3249 11.4045 19.9078 5.28634 20.7818C3.82964 20.7818 2.95572 21.947 2.66438 23.4038C1.79036 28.9392 1.20768 34.7657 0.625 40.3011C0.625 41.1752 0.624964 42.0491 1.49899 42.9231C2.08167 43.5058 2.95552 43.7971 3.82955 43.7971C9.07369 43.2144 14.3179 42.9231 19.562 42.9231C21.0187 42.9231 22.1841 43.215 23.0582 44.3803C23.9322 45.2544 24.515 46.4196 24.515 47.8763C24.515 53.9945 24.515 60.1122 24.515 66.5217C24.515 69.1437 26.5542 71.1832 29.1763 71.1832C32.3811 71.1832 35.2945 71.1832 38.4992 71.1832C41.4126 71.1832 44.6173 71.1832 47.5307 71.1832C48.9874 71.1832 49.8615 71.7664 51.0269 72.6405C51.9009 73.5145 52.4837 74.6797 52.4837 76.1364C52.4837 81.0892 51.901 86.3333 51.6097 91.5775C51.6097 92.4515 51.6097 93.3251 52.4837 93.9078C53.0664 94.4905 53.9402 94.7818 54.8142 94.7818C60.0584 94.1991 65.5939 93.6171 71.7121 92.7431C73.1688 92.7431 74.0429 91.5769 74.3343 90.1202C75.2083 84.5847 76.0821 78.7583 76.6648 73.2228C76.6648 72.3488 76.6649 71.4749 75.7908 70.6009C75.2082 70.0182 74.3343 69.7269 73.4603 69.7269C68.2161 70.3096 62.972 70.6009 57.7278 70.6009C56.2711 70.6009 55.397 70.309 54.2317 69.1436C53.3576 68.2696 52.7749 67.1044 52.7749 65.6477C52.7749 59.5295 52.7749 53.4118 52.7749 47.0023C52.7749 44.3802 50.7356 42.3407 48.1135 42.3407C44.9088 42.3407 41.9954 42.3407 38.7906 42.3407C35.8772 42.3407 32.6725 42.3407 29.7591 42.3407C28.3024 42.3407 27.4283 41.7584 26.2629 40.8844C25.3889 40.0104 24.8061 38.8443 24.8061 37.3876H24.515Z" fill="#C6FF35"/>
<path fill-rule="evenodd" clip-rule="evenodd" d="M31.2161 94.4902C33.5468 94.4902 35.8775 94.4902 38.2082 94.4902C41.1216 94.4902 44.3265 94.4902 47.2399 94.4902C48.1139 94.4902 48.9878 94.4902 49.5705 95.3642C50.1532 95.9469 50.4447 96.8205 50.4447 97.6945C50.4447 101.482 49.8618 104.978 49.5705 108.766C49.5705 110.222 48.1138 111.679 46.6571 111.679C41.1216 111.679 35.295 111.679 29.7595 111.679C28.3028 111.679 26.8459 110.514 26.8459 108.766C26.5546 105.561 26.2633 102.357 25.9719 99.1518C25.9719 96.2384 23.3498 93.9076 20.4364 93.6162C15.7749 93.0335 10.8222 92.4509 5.28673 91.8682C3.83002 91.8682 2.95611 90.7021 2.66477 89.2454C1.79074 83.7099 0.916667 77.8835 0.333984 72.348C0.333984 71.474 0.333949 70.6001 1.20797 69.726C1.79065 69.1434 2.66473 68.8521 3.53875 68.8521C9.65692 69.4347 15.4838 69.726 21.3106 69.726C23.0586 69.726 24.2239 71.1829 24.2239 72.6396C24.2239 77.8838 24.5152 82.8365 24.8065 88.0807C24.8065 91.2854 27.4287 93.6156 30.6335 93.907L31.2161 94.4902Z" fill="#C6FF35"/>
</svg>
